<?xml version="1.0" encoding="UTF-8" standalone="no"?>
<!DOCTYPE svg PUBLIC "-//W3C//DTD SVG 1.1//EN"
 "http://www.w3.org/Graphics/SVG/1.1/DTD/svg11.dtd">
<!-- Generated by graphviz version 2.47.1 (20210511.0111)
 -->
<!-- Title: snakemake_dag Pages: 1 -->
<svg width="297pt" height="1196pt"
 viewBox="0.00 0.00 297.00 1196.00" xmlns="http://www.w3.org/2000/svg" xmlns:xlink="http://www.w3.org/1999/xlink">
<g id="graph0" class="graph" transform="scale(1 1) rotate(0) translate(4 1192)">
<title>snakemake_dag</title>
<polygon fill="white" stroke="transparent" points="-4,4 -4,-1192 293,-1192 293,4 -4,4"/>
<!-- 0 -->
<g id="node1" class="node">
<title>0</title>
<path fill="none" stroke="#d85656" stroke-width="2" d="M171,-36C171,-36 141,-36 141,-36 135,-36 129,-30 129,-24 129,-24 129,-12 129,-12 129,-6 135,0 141,0 141,0 171,0 171,0 177,0 183,-6 183,-12 183,-12 183,-24 183,-24 183,-30 177,-36 171,-36"/>
<text text-anchor="middle" x="156" y="-15.5" font-family="sans" font-size="10.00">all</text>
</g>
<!-- 1 -->
<g id="node2" class="node">
<title>1</title>
<path fill="none" stroke="#70d856" stroke-width="2" d="M171,-108C171,-108 141,-108 141,-108 135,-108 129,-102 129,-96 129,-96 129,-84 129,-84 129,-78 135,-72 141,-72 141,-72 171,-72 171,-72 177,-72 183,-78 183,-84 183,-84 183,-96 183,-96 183,-102 177,-108 171,-108"/>
<text text-anchor="middle" x="156" y="-87.5" font-family="sans" font-size="10.00">VEP</text>
</g>
<!-- 1&#45;&gt;0 -->
<g id="edge1" class="edge">
<title>1&#45;&gt;0</title>
<path fill="none" stroke="grey" stroke-width="2" d="M156,-71.7C156,-63.98 156,-54.71 156,-46.11"/>
<polygon fill="grey" stroke="grey" stroke-width="2" points="159.5,-46.1 156,-36.1 152.5,-46.1 159.5,-46.1"/>
</g>
<!-- 2 -->
<g id="node3" class="node">
<title>2</title>
<path fill="none" stroke="#56a9d8" stroke-width="2" d="M187,-180C187,-180 125,-180 125,-180 119,-180 113,-174 113,-168 113,-168 113,-156 113,-156 113,-150 119,-144 125,-144 125,-144 187,-144 187,-144 193,-144 199,-150 199,-156 199,-156 199,-168 199,-168 199,-174 193,-180 187,-180"/>
<text text-anchor="middle" x="156" y="-159.5" font-family="sans" font-size="10.00">SelectVariants</text>
</g>
<!-- 2&#45;&gt;1 -->
<g id="edge2" class="edge">
<title>2&#45;&gt;1</title>
<path fill="none" stroke="grey" stroke-width="2" d="M156,-143.7C156,-135.98 156,-126.71 156,-118.11"/>
<polygon fill="grey" stroke="grey" stroke-width="2" points="159.5,-118.1 156,-108.1 152.5,-118.1 159.5,-118.1"/>
</g>
<!-- 3 -->
<g id="node4" class="node">
<title>3</title>
<path fill="none" stroke="#56d892" stroke-width="2" d="M191,-252C191,-252 121,-252 121,-252 115,-252 109,-246 109,-240 109,-240 109,-228 109,-228 109,-222 115,-216 121,-216 121,-216 191,-216 191,-216 197,-216 203,-222 203,-228 203,-228 203,-240 203,-240 203,-246 197,-252 191,-252"/>
<text text-anchor="middle" x="156" y="-231.5" font-family="sans" font-size="10.00">ApplyVQSR_snp</text>
</g>
<!-- 3&#45;&gt;2 -->
<g id="edge3" class="edge">
<title>3&#45;&gt;2</title>
<path fill="none" stroke="grey" stroke-width="2" d="M156,-215.7C156,-207.98 156,-198.71 156,-190.11"/>
<polygon fill="grey" stroke="grey" stroke-width="2" points="159.5,-190.1 156,-180.1 152.5,-190.1 159.5,-190.1"/>
</g>
<!-- 4 -->
<g id="node5" class="node">
<title>4</title>
<path fill="none" stroke="#5673d8" stroke-width="2" d="M143.5,-324C143.5,-324 66.5,-324 66.5,-324 60.5,-324 54.5,-318 54.5,-312 54.5,-312 54.5,-300 54.5,-300 54.5,-294 60.5,-288 66.5,-288 66.5,-288 143.5,-288 143.5,-288 149.5,-288 155.5,-294 155.5,-300 155.5,-300 155.5,-312 155.5,-312 155.5,-318 149.5,-324 143.5,-324"/>
<text text-anchor="middle" x="105" y="-303.5" font-family="sans" font-size="10.00">ApplyVQSR_indel</text>
</g>
<!-- 4&#45;&gt;3 -->
<g id="edge4" class="edge">
<title>4&#45;&gt;3</title>
<path fill="none" stroke="grey" stroke-width="2" d="M117.61,-287.7C123.6,-279.47 130.88,-269.48 137.48,-260.42"/>
<polygon fill="grey" stroke="grey" stroke-width="2" points="140.48,-262.25 143.54,-252.1 134.82,-258.13 140.48,-262.25"/>
</g>
<!-- 5 -->
<g id="node6" class="node">
<title>5</title>
<path fill="none" stroke="#56c9d8" stroke-width="2" d="M182,-468C182,-468 102,-468 102,-468 96,-468 90,-462 90,-456 90,-456 90,-444 90,-444 90,-438 96,-432 102,-432 102,-432 182,-432 182,-432 188,-432 194,-438 194,-444 194,-444 194,-456 194,-456 194,-462 188,-468 182,-468"/>
<text text-anchor="middle" x="142" y="-447.5" font-family="sans" font-size="10.00">MergeCohortVCFs</text>
</g>
<!-- 5&#45;&gt;4 -->
<g id="edge6" class="edge">
<title>5&#45;&gt;4</title>
<path fill="none" stroke="grey" stroke-width="2" d="M121.18,-431.62C111.54,-422.2 101.11,-409.7 96,-396 88.6,-376.18 91.62,-352.24 96.08,-334.19"/>
<polygon fill="grey" stroke="grey" stroke-width="2" points="99.51,-334.88 98.79,-324.31 92.77,-333.03 99.51,-334.88"/>
</g>
<!-- 24 -->
<g id="node25" class="node">
<title>24</title>
<path fill="none" stroke="#afd856" stroke-width="2" d="M166.5,-396C166.5,-396 117.5,-396 117.5,-396 111.5,-396 105.5,-390 105.5,-384 105.5,-384 105.5,-372 105.5,-372 105.5,-366 111.5,-360 117.5,-360 117.5,-360 166.5,-360 166.5,-360 172.5,-360 178.5,-366 178.5,-372 178.5,-372 178.5,-384 178.5,-384 178.5,-390 172.5,-396 166.5,-396"/>
<text text-anchor="middle" x="142" y="-375.5" font-family="sans" font-size="10.00">VQSR_indel</text>
</g>
<!-- 5&#45;&gt;24 -->
<g id="edge28" class="edge">
<title>5&#45;&gt;24</title>
<path fill="none" stroke="grey" stroke-width="2" d="M142,-431.7C142,-423.98 142,-414.71 142,-406.11"/>
<polygon fill="grey" stroke="grey" stroke-width="2" points="145.5,-406.1 142,-396.1 138.5,-406.1 145.5,-406.1"/>
</g>
<!-- 25 -->
<g id="node26" class="node">
<title>25</title>
<path fill="none" stroke="#d8cb56" stroke-width="2" d="M228,-324C228,-324 186,-324 186,-324 180,-324 174,-318 174,-312 174,-312 174,-300 174,-300 174,-294 180,-288 186,-288 186,-288 228,-288 228,-288 234,-288 240,-294 240,-300 240,-300 240,-312 240,-312 240,-318 234,-324 228,-324"/>
<text text-anchor="middle" x="207" y="-303.5" font-family="sans" font-size="10.00">VQSR_snp</text>
</g>
<!-- 5&#45;&gt;25 -->
<g id="edge29" class="edge">
<title>5&#45;&gt;25</title>
<path fill="none" stroke="grey" stroke-width="2" d="M161.16,-431.57C170.61,-421.96 181.37,-409.3 188,-396 197.67,-376.62 202.43,-352.47 204.77,-334.22"/>
<polygon fill="grey" stroke="grey" stroke-width="2" points="208.25,-334.56 205.88,-324.24 201.29,-333.79 208.25,-334.56"/>
</g>
<!-- 6 -->
<g id="node7" class="node">
<title>6</title>
<path fill="none" stroke="#d87556" stroke-width="2" d="M178,-540C178,-540 106,-540 106,-540 100,-540 94,-534 94,-528 94,-528 94,-516 94,-516 94,-510 100,-504 106,-504 106,-504 178,-504 178,-504 184,-504 190,-510 190,-516 190,-516 190,-528 190,-528 190,-534 184,-540 178,-540"/>
<text text-anchor="middle" x="142" y="-519.5" font-family="sans" font-size="10.00">GenotypeGVCFs</text>
</g>
<!-- 6&#45;&gt;5 -->
<g id="edge8" class="edge">
<title>6&#45;&gt;5</title>
<path fill="none" stroke="grey" stroke-width="2" d="M142,-503.7C142,-495.98 142,-486.71 142,-478.11"/>
<polygon fill="grey" stroke="grey" stroke-width="2" points="145.5,-478.1 142,-468.1 138.5,-478.1 145.5,-478.1"/>
</g>
<!-- 7 -->
<g id="node8" class="node">
<title>7</title>
<path fill="none" stroke="#d88d56" stroke-width="2" d="M176,-612C176,-612 108,-612 108,-612 102,-612 96,-606 96,-600 96,-600 96,-588 96,-588 96,-582 102,-576 108,-576 108,-576 176,-576 176,-576 182,-576 188,-582 188,-588 188,-588 188,-600 188,-600 188,-606 182,-612 176,-612"/>
<text text-anchor="middle" x="142" y="-591.5" font-family="sans" font-size="10.00">CombineGVCFs</text>
</g>
<!-- 7&#45;&gt;6 -->
<g id="edge9" class="edge">
<title>7&#45;&gt;6</title>
<path fill="none" stroke="grey" stroke-width="2" d="M142,-575.7C142,-567.98 142,-558.71 142,-550.11"/>
<polygon fill="grey" stroke="grey" stroke-width="2" points="145.5,-550.1 142,-540.1 138.5,-550.1 145.5,-550.1"/>
</g>
<!-- 8 -->
<g id="node9" class="node">
<title>8</title>
<path fill="none" stroke="#56d8a9" stroke-width="2" d="M121,-684C121,-684 19,-684 19,-684 13,-684 7,-678 7,-672 7,-672 7,-660 7,-660 7,-654 13,-648 19,-648 19,-648 121,-648 121,-648 127,-648 133,-654 133,-660 133,-660 133,-672 133,-672 133,-678 127,-684 121,-684"/>
<text text-anchor="middle" x="70" y="-663.5" font-family="sans" font-size="10.00">MergeHaplotypeCaller</text>
</g>
<!-- 8&#45;&gt;7 -->
<g id="edge10" class="edge">
<title>8&#45;&gt;7</title>
<path fill="none" stroke="grey" stroke-width="2" d="M87.8,-647.7C96.6,-639.14 107.38,-628.66 117,-619.3"/>
<polygon fill="grey" stroke="grey" stroke-width="2" points="119.68,-621.58 124.41,-612.1 114.8,-616.57 119.68,-621.58"/>
</g>
<!-- 9 -->
<g id="node10" class="node">
<title>9</title>
<path fill="none" stroke="#8fd856" stroke-width="2" d="M105.5,-756C105.5,-756 34.5,-756 34.5,-756 28.5,-756 22.5,-750 22.5,-744 22.5,-744 22.5,-732 22.5,-732 22.5,-726 28.5,-720 34.5,-720 34.5,-720 105.5,-720 105.5,-720 111.5,-720 117.5,-726 117.5,-732 117.5,-732 117.5,-744 117.5,-744 117.5,-750 111.5,-756 105.5,-756"/>
<text text-anchor="middle" x="70" y="-735.5" font-family="sans" font-size="10.00">HaplotypeCaller</text>
</g>
<!-- 9&#45;&gt;8 -->
<g id="edge12" class="edge">
<title>9&#45;&gt;8</title>
<path fill="none" stroke="grey" stroke-width="2" d="M70,-719.7C70,-711.98 70,-702.71 70,-694.11"/>
<polygon fill="grey" stroke="grey" stroke-width="2" points="73.5,-694.1 70,-684.1 66.5,-694.1 73.5,-694.1"/>
</g>
<!-- 10 -->
<g id="node11" class="node">
<title>10</title>
<path fill="none" stroke="#59d856" stroke-width="2" d="M78.5,-900C78.5,-900 43.5,-900 43.5,-900 37.5,-900 31.5,-894 31.5,-888 31.5,-888 31.5,-876 31.5,-876 31.5,-870 37.5,-864 43.5,-864 43.5,-864 78.5,-864 78.5,-864 84.5,-864 90.5,-870 90.5,-876 90.5,-876 90.5,-888 90.5,-888 90.5,-894 84.5,-900 78.5,-900"/>
<text text-anchor="middle" x="61" y="-879.5" font-family="sans" font-size="10.00">SortBam</text>
</g>
<!-- 10&#45;&gt;9 -->
<g id="edge13" class="edge">
<title>10&#45;&gt;9</title>
<path fill="none" stroke="grey" stroke-width="2" d="M60.15,-863.9C59.46,-845.96 58.9,-816.94 61,-792 61.72,-783.5 63.07,-774.31 64.51,-766.01"/>
<polygon fill="grey" stroke="grey" stroke-width="2" points="67.97,-766.56 66.35,-756.09 61.09,-765.29 67.97,-766.56"/>
</g>
<!-- 15 -->
<g id="node16" class="node">
<title>15</title>
<path fill="none" stroke="#56d873" stroke-width="2" d="M124,-828C124,-828 82,-828 82,-828 76,-828 70,-822 70,-816 70,-816 70,-804 70,-804 70,-798 76,-792 82,-792 82,-792 124,-792 124,-792 130,-792 136,-798 136,-804 136,-804 136,-816 136,-816 136,-822 130,-828 124,-828"/>
<text text-anchor="middle" x="103" y="-807.5" font-family="sans" font-size="10.00">IndexBam</text>
</g>
<!-- 10&#45;&gt;15 -->
<g id="edge19" class="edge">
<title>10&#45;&gt;15</title>
<path fill="none" stroke="grey" stroke-width="2" d="M71.38,-863.7C76.26,-855.56 82.19,-845.69 87.58,-836.7"/>
<polygon fill="grey" stroke="grey" stroke-width="2" points="90.59,-838.48 92.74,-828.1 84.59,-834.88 90.59,-838.48"/>
</g>
<!-- 11 -->
<g id="node12" class="node">
<title>11</title>
<path fill="none" stroke="#d8ac56" stroke-width="2" d="M110,-972C110,-972 12,-972 12,-972 6,-972 0,-966 0,-960 0,-960 0,-948 0,-948 0,-942 6,-936 12,-936 12,-936 110,-936 110,-936 116,-936 122,-942 122,-948 122,-948 122,-960 122,-960 122,-966 116,-972 110,-972"/>
<text text-anchor="middle" x="61" y="-951.5" font-family="sans" font-size="10.00">GatherRecalBamFiles</text>
</g>
<!-- 11&#45;&gt;10 -->
<g id="edge15" class="edge">
<title>11&#45;&gt;10</title>
<path fill="none" stroke="grey" stroke-width="2" d="M61,-935.7C61,-927.98 61,-918.71 61,-910.11"/>
<polygon fill="grey" stroke="grey" stroke-width="2" points="64.5,-910.1 61,-900.1 57.5,-910.1 64.5,-910.1"/>
</g>
<!-- 12 -->
<g id="node13" class="node">
<title>12</title>
<path fill="none" stroke="#c6d856" stroke-width="2" d="M84.5,-1044C84.5,-1044 37.5,-1044 37.5,-1044 31.5,-1044 25.5,-1038 25.5,-1032 25.5,-1032 25.5,-1020 25.5,-1020 25.5,-1014 31.5,-1008 37.5,-1008 37.5,-1008 84.5,-1008 84.5,-1008 90.5,-1008 96.5,-1014 96.5,-1020 96.5,-1020 96.5,-1032 96.5,-1032 96.5,-1038 90.5,-1044 84.5,-1044"/>
<text text-anchor="middle" x="61" y="-1023.5" font-family="sans" font-size="10.00">ApplyBQSR</text>
</g>
<!-- 12&#45;&gt;11 -->
<g id="edge16" class="edge">
<title>12&#45;&gt;11</title>
<path fill="none" stroke="grey" stroke-width="2" d="M61,-1007.7C61,-999.98 61,-990.71 61,-982.11"/>
<polygon fill="grey" stroke="grey" stroke-width="2" points="64.5,-982.1 61,-972.1 57.5,-982.1 64.5,-982.1"/>
</g>
<!-- 13 -->
<g id="node14" class="node">
<title>13</title>
<path fill="none" stroke="#5692d8" stroke-width="2" d="M106,-1116C106,-1116 16,-1116 16,-1116 10,-1116 4,-1110 4,-1104 4,-1104 4,-1092 4,-1092 4,-1086 10,-1080 16,-1080 16,-1080 106,-1080 106,-1080 112,-1080 118,-1086 118,-1092 118,-1092 118,-1104 118,-1104 118,-1110 112,-1116 106,-1116"/>
<text text-anchor="middle" x="61" y="-1095.5" font-family="sans" font-size="10.00">GatherBQSRReports</text>
</g>
<!-- 13&#45;&gt;12 -->
<g id="edge17" class="edge">
<title>13&#45;&gt;12</title>
<path fill="none" stroke="grey" stroke-width="2" d="M61,-1079.7C61,-1071.98 61,-1062.71 61,-1054.11"/>
<polygon fill="grey" stroke="grey" stroke-width="2" points="64.5,-1054.1 61,-1044.1 57.5,-1054.1 64.5,-1054.1"/>
</g>
<!-- 14 -->
<g id="node15" class="node">
<title>14</title>
<path fill="none" stroke="#56d8c9" stroke-width="2" d="M99,-1188C99,-1188 23,-1188 23,-1188 17,-1188 11,-1182 11,-1176 11,-1176 11,-1164 11,-1164 11,-1158 17,-1152 23,-1152 23,-1152 99,-1152 99,-1152 105,-1152 111,-1158 111,-1164 111,-1164 111,-1176 111,-1176 111,-1182 105,-1188 99,-1188"/>
<text text-anchor="middle" x="61" y="-1173" font-family="sans" font-size="10.00">BaseRecalibrator</text>
<text text-anchor="middle" x="61" y="-1162" font-family="sans" font-size="10.00">patient: A9GRM7</text>
</g>
<!-- 14&#45;&gt;13 -->
<g id="edge18" class="edge">
<title>14&#45;&gt;13</title>
<path fill="none" stroke="grey" stroke-width="2" d="M61,-1151.7C61,-1143.98 61,-1134.71 61,-1126.11"/>
<polygon fill="grey" stroke="grey" stroke-width="2" points="64.5,-1126.1 61,-1116.1 57.5,-1126.1 64.5,-1126.1"/>
</g>
<!-- 15&#45;&gt;9 -->
<g id="edge14" class="edge">
<title>15&#45;&gt;9</title>
<path fill="none" stroke="grey" stroke-width="2" d="M94.84,-791.7C91.09,-783.73 86.55,-774.1 82.38,-765.26"/>
<polygon fill="grey" stroke="grey" stroke-width="2" points="85.49,-763.66 78.06,-756.1 79.16,-766.64 85.49,-763.66"/>
</g>
<!-- 16 -->
<g id="node17" class="node">
<title>16</title>
<path fill="none" stroke="#56d8a9" stroke-width="2" d="M265,-684C265,-684 163,-684 163,-684 157,-684 151,-678 151,-672 151,-672 151,-660 151,-660 151,-654 157,-648 163,-648 163,-648 265,-648 265,-648 271,-648 277,-654 277,-660 277,-660 277,-672 277,-672 277,-678 271,-684 265,-684"/>
<text text-anchor="middle" x="214" y="-663.5" font-family="sans" font-size="10.00">MergeHaplotypeCaller</text>
</g>
<!-- 16&#45;&gt;7 -->
<g id="edge11" class="edge">
<title>16&#45;&gt;7</title>
<path fill="none" stroke="grey" stroke-width="2" d="M196.2,-647.7C187.4,-639.14 176.62,-628.66 167,-619.3"/>
<polygon fill="grey" stroke="grey" stroke-width="2" points="169.2,-616.57 159.59,-612.1 164.32,-621.58 169.2,-616.57"/>
</g>
<!-- 17 -->
<g id="node18" class="node">
<title>17</title>
<path fill="none" stroke="#8fd856" stroke-width="2" d="M249.5,-756C249.5,-756 178.5,-756 178.5,-756 172.5,-756 166.5,-750 166.5,-744 166.5,-744 166.5,-732 166.5,-732 166.5,-726 172.5,-720 178.5,-720 178.5,-720 249.5,-720 249.5,-720 255.5,-720 261.5,-726 261.5,-732 261.5,-732 261.5,-744 261.5,-744 261.5,-750 255.5,-756 249.5,-756"/>
<text text-anchor="middle" x="214" y="-735.5" font-family="sans" font-size="10.00">HaplotypeCaller</text>
</g>
<!-- 17&#45;&gt;16 -->
<g id="edge20" class="edge">
<title>17&#45;&gt;16</title>
<path fill="none" stroke="grey" stroke-width="2" d="M214,-719.7C214,-711.98 214,-702.71 214,-694.11"/>
<polygon fill="grey" stroke="grey" stroke-width="2" points="217.5,-694.1 214,-684.1 210.5,-694.1 217.5,-694.1"/>
</g>
<!-- 18 -->
<g id="node19" class="node">
<title>18</title>
<path fill="none" stroke="#59d856" stroke-width="2" d="M234.5,-900C234.5,-900 199.5,-900 199.5,-900 193.5,-900 187.5,-894 187.5,-888 187.5,-888 187.5,-876 187.5,-876 187.5,-870 193.5,-864 199.5,-864 199.5,-864 234.5,-864 234.5,-864 240.5,-864 246.5,-870 246.5,-876 246.5,-876 246.5,-888 246.5,-888 246.5,-894 240.5,-900 234.5,-900"/>
<text text-anchor="middle" x="217" y="-879.5" font-family="sans" font-size="10.00">SortBam</text>
</g>
<!-- 18&#45;&gt;17 -->
<g id="edge21" class="edge">
<title>18&#45;&gt;17</title>
<path fill="none" stroke="grey" stroke-width="2" d="M215.78,-863.82C215.11,-853.46 214.34,-839.98 214,-828 213.41,-807.28 213.44,-783.83 213.6,-766.21"/>
<polygon fill="grey" stroke="grey" stroke-width="2" points="217.1,-766.1 213.71,-756.07 210.1,-766.03 217.1,-766.1"/>
</g>
<!-- 23 -->
<g id="node24" class="node">
<title>23</title>
<path fill="none" stroke="#56d873" stroke-width="2" d="M277,-828C277,-828 235,-828 235,-828 229,-828 223,-822 223,-816 223,-816 223,-804 223,-804 223,-798 229,-792 235,-792 235,-792 277,-792 277,-792 283,-792 289,-798 289,-804 289,-804 289,-816 289,-816 289,-822 283,-828 277,-828"/>
<text text-anchor="middle" x="256" y="-807.5" font-family="sans" font-size="10.00">IndexBam</text>
</g>
<!-- 18&#45;&gt;23 -->
<g id="edge27" class="edge">
<title>18&#45;&gt;23</title>
<path fill="none" stroke="grey" stroke-width="2" d="M226.64,-863.7C231.13,-855.64 236.56,-845.89 241.52,-836.98"/>
<polygon fill="grey" stroke="grey" stroke-width="2" points="244.66,-838.54 246.47,-828.1 238.55,-835.14 244.66,-838.54"/>
</g>
<!-- 19 -->
<g id="node20" class="node">
<title>19</title>
<path fill="none" stroke="#d8ac56" stroke-width="2" d="M266,-972C266,-972 168,-972 168,-972 162,-972 156,-966 156,-960 156,-960 156,-948 156,-948 156,-942 162,-936 168,-936 168,-936 266,-936 266,-936 272,-936 278,-942 278,-948 278,-948 278,-960 278,-960 278,-966 272,-972 266,-972"/>
<text text-anchor="middle" x="217" y="-951.5" font-family="sans" font-size="10.00">GatherRecalBamFiles</text>
</g>
<!-- 19&#45;&gt;18 -->
<g id="edge23" class="edge">
<title>19&#45;&gt;18</title>
<path fill="none" stroke="grey" stroke-width="2" d="M217,-935.7C217,-927.98 217,-918.71 217,-910.11"/>
<polygon fill="grey" stroke="grey" stroke-width="2" points="220.5,-910.1 217,-900.1 213.5,-910.1 220.5,-910.1"/>
</g>
<!-- 20 -->
<g id="node21" class="node">
<title>20</title>
<path fill="none" stroke="#c6d856" stroke-width="2" d="M240.5,-1044C240.5,-1044 193.5,-1044 193.5,-1044 187.5,-1044 181.5,-1038 181.5,-1032 181.5,-1032 181.5,-1020 181.5,-1020 181.5,-1014 187.5,-1008 193.5,-1008 193.5,-1008 240.5,-1008 240.5,-1008 246.5,-1008 252.5,-1014 252.5,-1020 252.5,-1020 252.5,-1032 252.5,-1032 252.5,-1038 246.5,-1044 240.5,-1044"/>
<text text-anchor="middle" x="217" y="-1023.5" font-family="sans" font-size="10.00">ApplyBQSR</text>
</g>
<!-- 20&#45;&gt;19 -->
<g id="edge24" class="edge">
<title>20&#45;&gt;19</title>
<path fill="none" stroke="grey" stroke-width="2" d="M217,-1007.7C217,-999.98 217,-990.71 217,-982.11"/>
<polygon fill="grey" stroke="grey" stroke-width="2" points="220.5,-982.1 217,-972.1 213.5,-982.1 220.5,-982.1"/>
</g>
<!-- 21 -->
<g id="node22" class="node">
<title>21</title>
<path fill="none" stroke="#5692d8" stroke-width="2" d="M262,-1116C262,-1116 172,-1116 172,-1116 166,-1116 160,-1110 160,-1104 160,-1104 160,-1092 160,-1092 160,-1086 166,-1080 172,-1080 172,-1080 262,-1080 262,-1080 268,-1080 274,-1086 274,-1092 274,-1092 274,-1104 274,-1104 274,-1110 268,-1116 262,-1116"/>
<text text-anchor="middle" x="217" y="-1095.5" font-family="sans" font-size="10.00">GatherBQSRReports</text>
</g>
<!-- 21&#45;&gt;20 -->
<g id="edge25" class="edge">
<title>21&#45;&gt;20</title>
<path fill="none" stroke="grey" stroke-width="2" d="M217,-1079.7C217,-1071.98 217,-1062.71 217,-1054.11"/>
<polygon fill="grey" stroke="grey" stroke-width="2" points="220.5,-1054.1 217,-1044.1 213.5,-1054.1 220.5,-1054.1"/>
</g>
<!-- 22 -->
<g id="node23" class="node">
<title>22</title>
<path fill="none" stroke="#56d8c9" stroke-width="2" d="M255,-1188C255,-1188 179,-1188 179,-1188 173,-1188 167,-1182 167,-1176 167,-1176 167,-1164 167,-1164 167,-1158 173,-1152 179,-1152 179,-1152 255,-1152 255,-1152 261,-1152 267,-1158 267,-1164 267,-1164 267,-1176 267,-1176 267,-1182 261,-1188 255,-1188"/>
<text text-anchor="middle" x="217" y="-1173" font-family="sans" font-size="10.00">BaseRecalibrator</text>
<text text-anchor="middle" x="217" y="-1162" font-family="sans" font-size="10.00">patient: DX441S</text>
</g>
<!-- 22&#45;&gt;21 -->
<g id="edge26" class="edge">
<title>22&#45;&gt;21</title>
<path fill="none" stroke="grey" stroke-width="2" d="M217,-1151.7C217,-1143.98 217,-1134.71 217,-1126.11"/>
<polygon fill="grey" stroke="grey" stroke-width="2" points="220.5,-1126.1 217,-1116.1 213.5,-1126.1 220.5,-1126.1"/>
</g>
<!-- 23&#45;&gt;17 -->
<g id="edge22" class="edge">
<title>23&#45;&gt;17</title>
<path fill="none" stroke="grey" stroke-width="2" d="M245.62,-791.7C240.74,-783.56 234.81,-773.69 229.42,-764.7"/>
<polygon fill="grey" stroke="grey" stroke-width="2" points="232.41,-762.88 224.26,-756.1 226.41,-766.48 232.41,-762.88"/>
</g>
<!-- 24&#45;&gt;4 -->
<g id="edge7" class="edge">
<title>24&#45;&gt;4</title>
<path fill="none" stroke="grey" stroke-width="2" d="M132.85,-359.7C128.6,-351.64 123.44,-341.89 118.73,-332.98"/>
<polygon fill="grey" stroke="grey" stroke-width="2" points="121.81,-331.31 114.04,-324.1 115.62,-334.58 121.81,-331.31"/>
</g>
<!-- 25&#45;&gt;3 -->
<g id="edge5" class="edge">
<title>25&#45;&gt;3</title>
<path fill="none" stroke="grey" stroke-width="2" d="M194.39,-287.7C188.4,-279.47 181.12,-269.48 174.52,-260.42"/>
<polygon fill="grey" stroke="grey" stroke-width="2" points="177.18,-258.13 168.46,-252.1 171.52,-262.25 177.18,-258.13"/>
</g>
</g>
</svg>
